<svg width="31.000000" height="36.000000" viewBox="0 0 31 36" fill="none" xmlns="http://www.w3.org/2000/svg" xmlns:xlink="http://www.w3.org/1999/xlink">
	<desc>
			Created with Pixso.
	</desc>
	<defs/>
	<path id="Vector" d="M22.17 7.55C22.17 7.37 22.03 7.23 21.85 7.23L6.42 7.23C6.25 7.23 6.1 7.37 6.1 7.55L6.1 9.48C6.1 9.65 6.25 9.8 6.42 9.8L21.85 9.8C22.03 9.8 22.17 9.65 22.17 9.48L22.17 7.55ZM21.85 13.01L6.42 13.01C6.25 13.01 6.1 13.16 6.1 13.33L6.1 15.26C6.1 15.44 6.25 15.58 6.42 15.58L21.85 15.58C22.03 15.58 22.17 15.44 22.17 15.26L22.17 13.33C22.17 13.16 22.03 13.01 21.85 13.01ZM13.82 18.8L6.42 18.8C6.25 18.8 6.1 18.94 6.1 19.12L6.1 21.05C6.1 21.23 6.25 21.37 6.42 21.37L13.82 21.37C13.99 21.37 14.14 21.23 14.14 21.05L14.14 19.12C14.14 18.94 13.99 18.8 13.82 18.8ZM11.89 31.17L2.89 31.17L2.89 2.89L25.39 2.89L25.39 16.71C25.39 16.89 25.53 17.03 25.71 17.03L27.96 17.03C28.14 17.03 28.28 16.89 28.28 16.71L28.28 1.28C28.28 0.57 27.71 0 27 0L1.28 0C0.57 0 0 0.57 0 1.28L0 32.78C0 33.49 0.57 34.07 1.28 34.07L11.89 34.07C12.06 34.07 12.21 33.92 12.21 33.75L12.21 31.5C12.21 31.32 12.06 31.17 11.89 31.17ZM26.22 28.18C27.39 27.13 28.12 25.6 28.12 23.9C28.12 20.71 25.53 18.12 22.33 18.12C19.14 18.12 16.55 20.71 16.55 23.9C16.55 25.6 17.28 27.13 18.45 28.18C16.15 29.49 14.58 31.91 14.46 34.7C14.45 34.88 14.6 35.03 14.78 35.03L16.71 35.03C16.88 35.03 17.02 34.9 17.03 34.73C17.19 31.95 19.51 29.73 22.33 29.73C25.16 29.73 27.48 31.95 27.63 34.73C27.64 34.89 27.78 35.03 27.96 35.03L29.89 35.03C30.07 35.03 30.22 34.88 30.21 34.7C30.09 31.9 28.51 29.49 26.22 28.18ZM22.33 20.69C24.11 20.69 25.55 22.13 25.55 23.9C25.55 25.68 24.11 27.12 22.33 27.12C20.56 27.12 19.12 25.68 19.12 23.9C19.12 22.13 20.56 20.69 22.33 20.69Z" fill="#000000" fill-opacity="0.850000" fill-rule="nonzero"/>
</svg>
