<svg width="20.000000" height="23.000000" viewBox="0 0 20 23" fill="none" xmlns="http://www.w3.org/2000/svg" xmlns:xlink="http://www.w3.org/1999/xlink">
	<desc>
			Created with Pixso.
	</desc>
	<defs/>
	<path id="Vector" d="M14.68 4.95C14.68 4.84 14.58 4.74 14.46 4.74L4.25 4.74C4.13 4.74 4.04 4.84 4.04 4.95L4.04 6.22C4.04 6.34 4.13 6.43 4.25 6.43L14.46 6.43C14.58 6.43 14.68 6.34 14.68 6.22L14.68 4.95ZM14.46 8.54L4.25 8.54C4.13 8.54 4.04 8.64 4.04 8.75L4.04 10.02C4.04 10.13 4.13 10.23 4.25 10.23L14.46 10.23C14.58 10.23 14.68 10.13 14.68 10.02L14.68 8.75C14.68 8.64 14.58 8.54 14.46 8.54ZM9.14 12.34L4.25 12.34C4.13 12.34 4.04 12.43 4.04 12.55L4.04 13.82C4.04 13.93 4.13 14.03 4.25 14.03L9.14 14.03C9.26 14.03 9.36 13.93 9.36 13.82L9.36 12.55C9.36 12.43 9.26 12.34 9.14 12.34ZM7.87 20.46L1.91 20.46L1.91 1.89L16.8 1.89L16.8 10.97C16.8 11.08 16.9 11.18 17.02 11.18L18.51 11.18C18.62 11.18 18.72 11.08 18.72 10.97L18.72 0.84C18.72 0.37 18.34 0 17.87 0L0.85 0C0.38 0 0 0.37 0 0.84L0 21.52C0 21.98 0.38 22.36 0.85 22.36L7.87 22.36C7.98 22.36 8.08 22.27 8.08 22.15L8.08 20.67C8.08 20.56 7.98 20.46 7.87 20.46ZM17.36 18.5C18.13 17.81 18.61 16.8 18.61 15.69C18.61 13.59 16.9 11.89 14.78 11.89C12.67 11.89 10.95 13.59 10.95 15.69C10.95 16.8 11.44 17.81 12.21 18.5C10.69 19.36 9.65 20.95 9.57 22.78C9.56 22.89 9.66 23 9.78 23L11.06 23C11.17 23 11.27 22.91 11.27 22.79C11.38 20.97 12.91 19.51 14.78 19.51C16.65 19.51 18.19 20.97 18.29 22.79C18.3 22.91 18.39 23 18.5 23L19.78 23C19.9 23 20 22.89 19.99 22.78C19.92 20.94 18.87 19.36 17.36 18.5ZM14.78 13.58C15.96 13.58 16.91 14.52 16.91 15.69C16.91 16.85 15.96 17.8 14.78 17.8C13.61 17.8 12.65 16.85 12.65 15.69C12.65 14.52 13.61 13.58 14.78 13.58Z" fill="#3693FF" fill-opacity="0.850000" fill-rule="nonzero"/>
</svg>
