<svg width="21" height="16" viewBox="0 0 21 16" fill="none" xmlns="http://www.w3.org/2000/svg">
<path d="M20.25 0H0.75C0.335156 0 0 0.325 0 0.727273V15.2727C0 15.675 0.335156 16 0.75 16H20.25C20.6648 16 21 15.675 21 15.2727V0.727273C21 0.325 20.6648 0 20.25 0ZM19.3125 2.51818V14.3636H1.6875V2.51818L1.04062 2.02955L1.96172 0.881818L2.96484 1.63864H18.0375L19.0406 0.881818L19.9617 2.02955L19.3125 2.51818ZM18.0375 1.63636L10.5 7.31818L2.9625 1.63636L1.95938 0.879545L1.03828 2.02727L1.68516 2.51591L9.69141 8.55227C9.92165 8.72573 10.2049 8.81989 10.4965 8.81989C10.7881 8.81989 11.0713 8.72573 11.3016 8.55227L19.3125 2.51818L19.9594 2.02955L19.0383 0.881818L18.0375 1.63636Z" fill="white"/>
</svg>
