<svg width="27.000000" height="36.000000" viewBox="0 0 27 36" fill="none" xmlns="http://www.w3.org/2000/svg" xmlns:xlink="http://www.w3.org/1999/xlink">
	<desc>
			Created with Pixso.
	</desc>
	<defs/>
	<path id="Vector" d="M25.71 27.96L24.75 27.96L24.75 14.3C24.75 8.63 20.55 3.94 15.1 3.17L15.1 1.6C15.1 0.71 14.38 0 13.5 0C12.61 0 11.89 0.71 11.89 1.6L11.89 3.17C6.44 3.94 2.25 8.63 2.25 14.3L2.25 27.96L1.28 27.96C0.57 27.96 0 28.53 0 29.25L0 30.53C0 30.71 0.14 30.85 0.32 30.85L9 30.85C9 33.34 11.01 35.35 13.5 35.35C15.98 35.35 18 33.34 18 30.85L26.67 30.85C26.85 30.85 27 30.71 27 30.53L27 29.25C27 28.53 26.42 27.96 25.71 27.96ZM13.5 32.78C12.43 32.78 11.57 31.92 11.57 30.85L15.42 30.85C15.42 31.92 14.56 32.78 13.5 32.78ZM5.14 27.96L5.14 14.3C5.14 12.06 6.01 9.97 7.58 8.39C9.16 6.81 11.26 5.94 13.5 5.94C15.73 5.94 17.83 6.81 19.41 8.39C20.98 9.97 21.85 12.06 21.85 14.3L21.85 27.96L5.14 27.96Z" fill="#FFFFFF" fill-opacity="0.850000" fill-rule="nonzero"/>
</svg>
