<svg width="30.000000" height="35.000000" viewBox="0 0 30 35" fill="none" xmlns="http://www.w3.org/2000/svg" xmlns:xlink="http://www.w3.org/1999/xlink">
	<desc>
			Created with Pixso.
	</desc>
	<defs/>
	<path id="Vector" d="M12.26 16.62L12.26 6.54L17.42 6.54C18.06 6.51 18.69 6.62 19.28 6.87C19.88 7.13 20.41 7.51 20.86 8C21.7 9.05 22.13 10.41 22.06 11.79C22.06 14.99 20.39 16.59 17.06 16.6L12.26 16.62ZM17.33 1.13C19.46 1.08 21.56 1.55 23.5 2.48C25.16 3.27 26.56 4.58 27.53 6.22C28.5 7.87 29 9.79 28.96 11.75C28.96 14.92 27.95 17.37 25.87 19.19C23.8 21.01 20.83 21.99 17.17 21.99L11.22 21.99L11.22 25.57L18.2 25.57L18.2 29.81L11.22 29.81L11.22 33.87L5.49 33.87L5.49 29.82L1.05 29.82L1.05 25.58L5.49 25.58L5.49 22.01L1.05 22.01L1.05 17.74L5.49 17.74L5.49 1.13L17.33 1.13ZM11.22 17.74L17.06 17.74C20.97 17.74 23.11 15.64 23.11 11.81C23.17 10.13 22.62 8.49 21.58 7.24C21.04 6.63 20.39 6.15 19.67 5.83C18.95 5.51 18.18 5.36 17.4 5.39L11.22 5.39L11.22 17.73L11.22 17.74ZM17.33 0L4.43 0L4.43 16.62L0 16.62L0 23.13L4.43 23.13L4.43 24.46L0 24.46L0 30.93L4.43 30.93L4.43 35L12.26 35L12.26 30.93L19.25 30.93L19.25 24.46L12.26 24.46L12.26 23.13L17.17 23.13C21.1 23.13 24.22 22.11 26.53 20.08C28.84 18.05 30 15.28 29.99 11.79C30.03 9.62 29.48 7.49 28.4 5.66C27.33 3.83 25.77 2.38 23.94 1.5C21.87 0.47 19.61 -0.04 17.33 0Z" fill="#00FF1A" fill-opacity="1.000000" fill-rule="nonzero"/>
</svg>
