<svg width="26.000000" height="23.000000" viewBox="0 0 26 23" fill="none" xmlns="http://www.w3.org/2000/svg" xmlns:xlink="http://www.w3.org/1999/xlink">
	<desc>
			Created with Pixso.
	</desc>
	<defs>
		<clipPath id="clip17_3184">
			<rect id="svg" width="26.000000" height="23.000000" fill="white" fill-opacity="0"/>
		</clipPath>
	</defs>
	<g clip-path="url(#clip17_3184)">
		<path id="Vector" d="M19.56 17L26 11.5L19.56 6L19.56 10.12L8 10.12L8 12.87L19.56 12.87L19.56 17Z" fill="#FF6464" fill-opacity="1.000000" fill-rule="nonzero"/>
		<path id="Vector" d="M2.6 23L14.38 23C15.81 23 17 21.85 17 20.43L17 15.33L14.38 15.33L14.38 20.43L2.6 20.43L2.6 2.55L14.38 2.55L14.38 7.66L17 7.66L17 2.55C17 1.14 15.81 0 14.38 0L2.6 0C1.17 0 0 1.14 0 2.55L0 20.43C0 21.85 1.17 23 2.6 23Z" fill="#FF6464" fill-opacity="1.000000" fill-rule="nonzero"/>
	</g>
</svg>
