<svg width="28" height="28" viewBox="0 0 28 28" fill="none" xmlns="http://www.w3.org/2000/svg">
<path d="M14 0.200012C21.6218 0.200012 27.8 6.37821 27.8 14C27.8 21.6218 21.6218 27.8 14 27.8C6.3782 27.8 0.199997 21.6218 0.199997 14C0.199997 6.37821 6.3782 0.200012 14 0.200012ZM18.7604 19.625C19.0142 18.8462 20.2034 11.0846 20.3504 9.55521C20.3948 9.09201 20.2484 8.78421 19.9616 8.64681C19.6148 8.48001 19.1012 8.56341 18.5054 8.77821C17.6882 9.07281 7.241 13.5086 6.6374 13.7654C6.065 14.0084 5.5238 14.2736 5.5238 14.6576C5.5238 14.9276 5.684 15.0794 6.1256 15.2372C6.5852 15.401 7.7426 15.752 8.426 15.9404C9.0842 16.1222 9.8336 15.9644 10.2536 15.7034C10.6988 15.4268 15.8366 11.9888 16.2056 11.6876C16.574 11.3864 16.868 11.7722 16.5668 12.074C16.2656 12.3752 12.7388 15.7982 12.2738 16.2722C11.7092 16.8476 12.11 17.444 12.4886 17.6828C12.9212 17.9552 16.0322 20.042 16.5008 20.3768C16.9694 20.7116 17.4446 20.8634 17.8796 20.8634C18.3146 20.8634 18.5438 20.2904 18.7604 19.625Z" fill="#737373"/>
</svg>
