<svg width="33.000000" height="33.000000" viewBox="0 0 33 33" fill="none" xmlns="http://www.w3.org/2000/svg" xmlns:xlink="http://www.w3.org/1999/xlink">
	<desc>
			Created with Pixso.
	</desc>
	<defs/>
	<path id="Vector" d="M30.37 1.92L26.67 1.92L26.67 0.32C26.67 0.14 26.53 0 26.35 0L5.78 0C5.6 0 5.46 0.14 5.46 0.32L5.46 1.92L1.76 1.92C1.29 1.92 0.84 2.11 0.51 2.44C0.18 2.77 0 3.22 0 3.69L0 9.64C0 12.92 2.41 15.65 5.55 16.15C6.17 20.82 9.92 24.49 14.62 25.01L14.62 29.23L6.75 29.23C6.03 29.23 5.46 29.81 5.46 30.52L5.46 31.82C5.46 31.99 5.6 32.14 5.78 32.14L26.35 32.14C26.53 32.14 26.67 31.99 26.67 31.82L26.67 30.52C26.67 29.81 26.1 29.23 25.39 29.23L17.51 29.23L17.51 25.01C22.21 24.49 25.96 20.82 26.59 16.15C29.73 15.65 32.14 12.92 32.14 9.64L32.14 3.69C32.14 3.22 31.95 2.77 31.62 2.44C31.29 2.11 30.84 1.92 30.37 1.92ZM2.89 9.64L2.89 4.82L5.46 4.82L5.46 13.16C4.71 12.92 4.06 12.45 3.6 11.82C3.14 11.18 2.89 10.42 2.89 9.64ZM23.78 14.78C23.78 16.75 23.01 18.61 21.62 20.01C20.22 21.41 18.36 22.17 16.39 22.17L15.75 22.17C13.77 22.17 11.91 21.41 10.52 20.01C9.12 18.61 8.35 16.75 8.35 14.78L8.35 2.89L23.78 2.89L23.78 14.78ZM29.25 9.64C29.25 11.29 28.16 12.68 26.67 13.16L26.67 4.82L29.25 4.82L29.25 9.64Z" fill="#F1E800" fill-opacity="0.850000" fill-rule="nonzero"/>
</svg>
