<svg width="25.000000" height="25.000000" viewBox="0 0 25 25" fill="none" xmlns="http://www.w3.org/2000/svg" xmlns:xlink="http://www.w3.org/1999/xlink">
	<desc>
			Created with Pixso.
	</desc>
	<defs>
		<clipPath id="clip10_1219">
			<rect id="User" width="25.000000" height="25.000000" fill="white" fill-opacity="0"/>
		</clipPath>
	</defs>
	<g clip-path="url(#clip10_1219)">
		<path id="Vector" d="M22.16 19.51C21.64 18.27 20.87 17.13 19.91 16.18C18.96 15.22 17.83 14.46 16.58 13.93C16.57 13.92 16.56 13.92 16.55 13.91C18.28 12.66 19.41 10.61 19.41 8.31C19.41 4.48 16.32 1.39 12.49 1.39C8.67 1.39 5.57 4.48 5.57 8.31C5.57 10.61 6.7 12.66 8.44 13.92C8.43 13.92 8.42 13.93 8.41 13.93C7.16 14.46 6.04 15.21 5.08 16.18C4.12 17.14 3.35 18.27 2.83 19.51C2.31 20.73 2.03 22.04 2 23.37C2 23.4 2.01 23.43 2.02 23.45C2.03 23.48 2.05 23.51 2.07 23.53C2.09 23.55 2.11 23.57 2.14 23.58C2.17 23.59 2.2 23.6 2.23 23.6L3.9 23.6C4.02 23.6 4.12 23.5 4.12 23.38C4.18 21.22 5.04 19.21 6.57 17.68C8.16 16.1 10.26 15.23 12.49 15.23C14.73 15.23 16.83 16.1 18.41 17.68C19.94 19.21 20.81 21.22 20.86 23.38C20.87 23.5 20.97 23.6 21.09 23.6L22.76 23.6C22.79 23.6 22.82 23.59 22.85 23.58C22.88 23.57 22.9 23.55 22.92 23.53C22.94 23.51 22.96 23.48 22.97 23.45C22.98 23.43 22.99 23.4 22.99 23.37C22.96 22.03 22.68 20.74 22.16 19.51ZM12.49 13.11C11.21 13.11 10.01 12.61 9.1 11.7C8.19 10.79 7.7 9.59 7.7 8.31C7.7 7.03 8.19 5.82 9.1 4.91C10.01 4.01 11.21 3.51 12.49 3.51C13.77 3.51 14.98 4.01 15.89 4.91C16.79 5.82 17.29 7.03 17.29 8.31C17.29 9.59 16.79 10.79 15.89 11.7C14.98 12.61 13.77 13.11 12.49 13.11Z" fill="#000000" fill-opacity="0.850000" fill-rule="nonzero"/>
	</g>
</svg>
