<svg width="28" height="28" viewBox="0 0 28 28" fill="none" xmlns="http://www.w3.org/2000/svg">
<path d="M14 0.200012C6.3908 0.200012 0.199997 6.39081 0.199997 14C0.199997 21.6092 6.3908 27.8 14 27.8C21.6098 27.8 27.8 21.6092 27.8 14C27.8 6.39081 21.6098 0.200012 14 0.200012ZM19.9838 16.721C21.326 17.9126 21.605 18.338 21.6506 18.4106C22.2068 19.2926 21.0338 19.4 21.0338 19.4H18.5618C18.5618 19.4 17.96 19.4066 17.4458 19.0658C16.6076 18.5168 15.7298 17.4524 15.113 17.6372C14.5952 17.792 14.6 18.4916 14.6 19.0898C14.6 19.304 14.4158 19.4 14 19.4C13.5842 19.4 13.4114 19.4 13.2272 19.4C11.873 19.4 10.4036 18.944 8.9378 17.4122C6.8642 15.2468 5.0456 10.8848 5.0456 10.8848C5.0456 10.8848 4.9382 10.6652 5.0552 10.5314C5.1878 10.3814 5.5484 10.4006 5.5484 10.4006L7.9454 10.4C7.9454 10.4 8.171 10.4426 8.333 10.5566C8.4668 10.6502 8.5412 10.829 8.5412 10.829C8.5412 10.829 8.9438 12.1586 9.4568 13.0064C10.4588 14.6612 10.925 14.7032 11.2652 14.525C11.762 14.267 11.6 12.5078 11.6 12.5078C11.6 12.5078 11.6222 11.7524 11.363 11.4158C11.1632 11.1554 10.781 11.0168 10.6142 10.9952C10.4792 10.9778 10.7048 10.7414 10.9922 10.6064C11.3762 10.4354 11.8988 10.3916 12.8 10.4C13.5014 10.4066 13.7036 10.4486 13.9772 10.5116C14.8046 10.7024 14.6 11.2058 14.6 12.9734C14.6 13.5398 14.522 14.336 14.9492 14.6C15.1334 14.714 15.7646 14.8532 16.8878 13.0292C17.4212 12.164 17.8454 10.7288 17.8454 10.7288C17.8454 10.7288 17.933 10.571 18.0692 10.493C18.2084 10.4132 18.2042 10.415 18.395 10.415C18.5858 10.415 20.4992 10.4 20.9192 10.4C21.3386 10.4 21.7322 10.3952 21.8 10.6412C21.8972 10.9946 21.4904 12.2054 20.4596 13.5194C18.7658 15.6758 18.578 15.4742 19.9838 16.721Z" fill="#737373"/>
</svg>
